<svg width="32" height="32" viewBox="0 0 32 32" fill="none" xmlns="http://www.w3.org/2000/svg">
<path d="M9.25338 6.66678C9.25302 7.37402 8.97173 8.05216 8.47139 8.55201C7.97104 9.05185 7.29262 9.33247 6.58538 9.33211C5.87813 9.33176 5.2 9.05047 4.70015 8.55012C4.2003 8.04977 3.91969 7.37136 3.92004 6.66411C3.9204 5.95687 4.20169 5.27873 4.70204 4.77889C5.20238 4.27904 5.8808 3.99843 6.58804 3.99878C7.29529 3.99913 7.97343 4.28042 8.47327 4.78077C8.97312 5.28112 9.25373 5.95954 9.25338 6.66678ZM9.33338 11.3068H4.00004V28.0001H9.33338V11.3068ZM17.76 11.3068H12.4534V28.0001H17.7067V19.2401C17.7067 14.3601 24.0667 13.9068 24.0667 19.2401V28.0001H29.3334V17.4268C29.3334 9.20011 19.92 9.50678 17.7067 13.5468L17.76 11.3068Z" fill="#0A142F"/>
</svg>
