<svg width="32" height="32" viewBox="0 0 32 32" fill="none" xmlns="http://www.w3.org/2000/svg">
<path d="M28.724 8.66392C29.3334 11.0399 29.3334 15.9999 29.3334 15.9999C29.3334 15.9999 29.3334 20.9599 28.724 23.3359C28.3854 24.6493 27.3947 25.6826 26.14 26.0319C23.8614 26.6666 16 26.6666 16 26.6666C16 26.6666 8.14269 26.6666 5.86002 26.0319C4.60002 25.6773 3.61069 24.6453 3.27602 23.3359C2.66669 20.9599 2.66669 15.9999 2.66669 15.9999C2.66669 15.9999 2.66669 11.0399 3.27602 8.66392C3.61469 7.35059 4.60535 6.31725 5.86002 5.96792C8.14269 5.33325 16 5.33325 16 5.33325C16 5.33325 23.8614 5.33325 26.14 5.96792C27.4 6.32259 28.3894 7.35459 28.724 8.66392ZM13.3334 20.6666L21.3334 15.9999L13.3334 11.3333V20.6666Z" fill="#0A142F"/>
</svg>
