<svg width="40" height="40" viewBox="0 0 40 40" fill="none" xmlns="http://www.w3.org/2000/svg">
<path d="M10 19.3444V30H20.6556L18.4333 27.7778H12.2222V21.5667L10 19.3444Z" fill="#FFC93E"/>
<path d="M38.7444 35.8778L35.5555 32.6444V35.5555H4.44444V30.9444H6.66666V29.1666H4.44444V21.7778H6.66666V20H4.44444V12.8889H6.66666V11.1111H4.44444V4.89998L22.1556 22.5111V19.3778L4.12222 1.43331C3.96681 1.27661 3.76825 1.16975 3.55186 1.12634C3.33548 1.08293 3.11106 1.10494 2.90724 1.18957C2.70341 1.2742 2.5294 1.41761 2.4074 1.60152C2.2854 1.78543 2.22093 2.00151 2.22222 2.2222V36.6666C2.22222 36.9613 2.33928 37.2439 2.54765 37.4523C2.75603 37.6607 3.03864 37.7778 3.33333 37.7778H37.9555C38.1762 37.779 38.3923 37.7146 38.5762 37.5926C38.7601 37.4706 38.9035 37.2966 38.9882 37.0927C39.0728 36.8889 39.0948 36.6645 39.0514 36.4481C39.008 36.2317 38.9011 36.0332 38.7444 35.8778Z" fill="#FFC93E"/>
<path d="M26.6666 33.3333H31.1111C31.7005 33.3333 32.2657 33.0992 32.6824 32.6824C33.0992 32.2657 33.3333 31.7005 33.3333 31.1111V9.66666L30.7778 4.96666C30.5801 4.62424 30.2947 4.34074 29.9509 4.14543C29.6072 3.95011 29.2175 3.85004 28.8222 3.85555C28.4179 3.85875 28.0222 3.97219 27.6776 4.18365C27.333 4.3951 27.0526 4.69656 26.8666 5.05555L24.4444 9.68888V31.1111C24.4444 31.7005 24.6786 32.2657 25.0953 32.6824C25.512 33.0992 26.0773 33.3333 26.6666 33.3333ZM26.6666 10.2222L28.8222 6.03332L31.1111 10.2333V26.6667H26.6666V10.2222ZM26.6666 28.4778H31.1111V31.1889H26.6666V28.4778Z" fill="#FFC93E"/>
</svg>
